{
  "scenes" : [ { "nodes" : [ 0, 1, 2, 3 ] } ],
  "nodes" : [
    { "mesh" : 0, "translation" : [0,0,0] },
    { "mesh" : 1, "translation" : [0,0,0] },
    { "mesh" : 2, "translation" : [0,0,0] },
    { "mesh" : 3, "translation" : [0,0,0] }
  ],
  "meshes" : [
    { "primitives" : [ { "attributes" : { "POSITION" : 1, "COLOR_0" : 2, "NORMAL" : 3 }, "indices" : 0, "material": 0 } ] },
    { "primitives" : [ { "attributes" : { "POSITION" : 5, "COLOR_0" : 6, "NORMAL" : 7 }, "indices" : 4, "material": 0 } ] },
    { "primitives" : [ { "attributes" : { "POSITION" : 9, "COLOR_0" : 10, "NORMAL" : 11 }, "indices" : 8, "material": 0 } ] },
    { "primitives" : [ { "attributes" : { "POSITION" : 13, "COLOR_0" : 14, "NORMAL" : 15 }, "indices" : 12, "material": 0 } ] }
  ],
  "buffers" : [
    {"uri" : "data:application/octet-stream;base64,", "byteLength" : 17532},
    {"uri" : "data:application/octet-stream;base64,", "byteLength" : 52596},
    {"uri" : "data:application/octet-stream;base64,", "byteLength" : 52596},
    {"uri" : "data:application/octet-stream;base64,", "byteLength" : 52596},
    {"uri" : "data:application/octet-stream;base64,", "byteLength" : 151200},
    {"uri" : "data:application/octet-stream;base64,", "byteLength" : 76104},
    {"uri" : "data:application/octet-stream;base64,", "byteLength" : 76104},
    {"uri" : "data:application/octet-stream;base64,", "byteLength" : 76104},
    {"uri" : "data:application/octet-stream;base64,", "byteLength" : 0},
    {"uri" : "data:application/octet-stream;base64,", "byteLength" : 0},
    {"uri" : "data:application/octet-stream;base64,", "byteLength" : 0},
    {"uri" : "data:application/octet-stream;base64,", "byteLength" : 0},
    {"uri" : "data:application/octet-stream;base64,", "byteLength" : 0},
    {"uri" : "data:application/octet-stream;base64,", "byteLength" : 0},
    {"uri" : "data:application/octet-stream;base64,", "byteLength" : 0},
    {"uri" : "data:application/octet-stream;base64,", "byteLength" : 0}
  ],
  "bufferViews" : [
    { "buffer" : 0, "byteOffset" : 0, "byteLength" : 17532, "target" : 34963  },
    { "buffer" : 1, "byteOffset" : 0, "byteLength" : 52596, "target" : 34962  },
    { "buffer" : 2, "byteOffset" : 0, "byteLength" : 52596, "target" : 34962  },
    { "buffer" : 3, "byteOffset" : 0, "byteLength" : 52596, "target" : 34962  },
    { "buffer" : 4, "byteOffset" : 0, "byteLength" : 151200, "target" : 34963  },
    { "buffer" : 5, "byteOffset" : 0, "byteLength" : 76104, "target" : 34962  },
    { "buffer" : 6, "byteOffset" : 0, "byteLength" : 76104, "target" : 34962  },
    { "buffer" : 7, "byteOffset" : 0, "byteLength" : 76104, "target" : 34962  },
    { "buffer" : 8, "byteOffset" : 0, "byteLength" : 0, "target" : 34963  },
    { "buffer" : 9, "byteOffset" : 0, "byteLength" : 0, "target" : 34962  },
    { "buffer" : 10, "byteOffset" : 0, "byteLength" : 0, "target" : 34962  },
    { "buffer" : 11, "byteOffset" : 0, "byteLength" : 0, "target" : 34962  },
    { "buffer" : 12, "byteOffset" : 0, "byteLength" : 0, "target" : 34963  },
    { "buffer" : 13, "byteOffset" : 0, "byteLength" : 0, "target" : 34962  },
    { "buffer" : 14, "byteOffset" : 0, "byteLength" : 0, "target" : 34962  },
    { "buffer" : 15, "byteOffset" : 0, "byteLength" : 0, "target" : 34962  }
  ],
  "accessors" : [
    { "bufferView" : 0, "byteOffset" : 0, "componentType" : 5125, "type" : "SCALAR", "count" : 4383},
    { "bufferView" : 1, "byteOffset" : 0, "componentType" : 5126, "type" : "VEC3", "count" : 4383, "max" : [2,0.75969398,0.556551278], "min" : [0,-0.716437459,-0.371788532] },
    { "bufferView" : 2, "byteOffset" : 0, "componentType" : 5126, "type" : "VEC3", "count" : 4383},
    { "bufferView" : 3, "byteOffset" : 0, "componentType" : 5126, "type" : "VEC3", "count" : 4383},
    { "bufferView" : 4, "byteOffset" : 0, "componentType" : 5125, "type" : "SCALAR", "count" : 37800},
    { "bufferView" : 5, "byteOffset" : 0, "componentType" : 5126, "type" : "VEC3", "count" : 6342, "max" : [2.02999997,0.519536614,0.0645811334], "min" : [-0.0299999993,0.09340249,-0.0273656435] },
    { "bufferView" : 6, "byteOffset" : 0, "componentType" : 5126, "type" : "VEC3", "count" : 6342},
    { "bufferView" : 7, "byteOffset" : 0, "componentType" : 5126, "type" : "VEC3", "count" : 6342},
    { "bufferView" : 8, "byteOffset" : 0, "componentType" : 5125, "type" : "SCALAR", "count" : 0},
    { "bufferView" : 9, "byteOffset" : 0, "componentType" : 5126, "type" : "VEC3", "count" : 0, "max" : [-3.40282347e+38,-3.40282347e+38,-3.40282347e+38], "min" : [3.40282347e+38,3.40282347e+38,3.40282347e+38] },
    { "bufferView" : 10, "byteOffset" : 0, "componentType" : 5126, "type" : "VEC3", "count" : 0},
    { "bufferView" : 11, "byteOffset" : 0, "componentType" : 5126, "type" : "VEC3", "count" : 0},
    { "bufferView" : 12, "byteOffset" : 0, "componentType" : 5125, "type" : "SCALAR", "count" : 0},
    { "bufferView" : 13, "byteOffset" : 0, "componentType" : 5126, "type" : "VEC3", "count" : 0, "max" : [-3.40282347e+38,-3.40282347e+38,-3.40282347e+38], "min" : [3.40282347e+38,3.40282347e+38,3.40282347e+38] },
    { "bufferView" : 14, "byteOffset" : 0, "componentType" : 5126, "type" : "VEC3", "count" : 0},
    { "bufferView" : 15, "byteOffset" : 0, "componentType" : 5126, "type" : "VEC3", "count" : 0}
  ],
  "materials" : [ { "doubleSided" : true } ],
  "asset" : {
    "generator" : "https://github.com/ABRG-Models/morphologica: morph::Visual::savegltf()",
    "version" : "2.0"
  }
}
