{
  "scenes" : [ { "nodes" : [ 0, 1, 2, 3, 4 ] } ],
  "nodes" : [
    { "mesh" : 0, "translation" : [0,0,0] },
    { "mesh" : 1, "translation" : [0,0,0] },
    { "mesh" : 2, "translation" : [0,0,0] },
    { "mesh" : 3, "translation" : [0,0,0] },
    { "mesh" : 4, "translation" : [0,0,0] }
  ],
  "meshes" : [
    { "primitives" : [ { "attributes" : { "POSITION" : 1, "COLOR_0" : 2, "NORMAL" : 3 }, "indices" : 0, "material": 0 } ] },
    { "primitives" : [ { "attributes" : { "POSITION" : 5, "COLOR_0" : 6, "NORMAL" : 7 }, "indices" : 4, "material": 0 } ] },
    { "primitives" : [ { "attributes" : { "POSITION" : 9, "COLOR_0" : 10, "NORMAL" : 11 }, "indices" : 8, "material": 0 } ] },
    { "primitives" : [ { "attributes" : { "POSITION" : 13, "COLOR_0" : 14, "NORMAL" : 15 }, "indices" : 12, "material": 0 } ] },
    { "primitives" : [ { "attributes" : { "POSITION" : 17, "COLOR_0" : 18, "NORMAL" : 19 }, "indices" : 16, "material": 0 } ] }
  ],
  "buffers" : [
    {"uri" : "data:application/octet-stream;base64,", "byteLength" : 138504},
    {"uri" : "data:application/octet-stream;base64,", "byteLength" : 415512},
    {"uri" : "data:application/octet-stream;base64,", "byteLength" : 415512},
    {"uri" : "data:application/octet-stream;base64,", "byteLength" : 415512},
    {"uri" : "data:application/octet-stream;base64,", "byteLength" : 288000},
    {"uri" : "data:application/octet-stream;base64,", "byteLength" : 144960},
    {"uri" : "data:application/octet-stream;base64,", "byteLength" : 144960},
    {"uri" : "data:application/octet-stream;base64,", "byteLength" : 144960},
    {"uri" : "data:application/octet-stream;base64,", "byteLength" : 1152},
    {"uri" : "data:application/octet-stream;base64,", "byteLength" : 600},
    {"uri" : "data:application/octet-stream;base64,", "byteLength" : 600},
    {"uri" : "data:application/octet-stream;base64,", "byteLength" : 600},
    {"uri" : "data:application/octet-stream;base64,", "byteLength" : 0},
    {"uri" : "data:application/octet-stream;base64,", "byteLength" : 0},
    {"uri" : "data:application/octet-stream;base64,", "byteLength" : 0},
    {"uri" : "data:application/octet-stream;base64,", "byteLength" : 0},
    {"uri" : "data:application/octet-stream;base64,", "byteLength" : 21600},
    {"uri" : "data:application/octet-stream;base64,", "byteLength" : 10872},
    {"uri" : "data:application/octet-stream;base64,", "byteLength" : 10872},
    {"uri" : "data:application/octet-stream;base64,", "byteLength" : 10872}
  ],
  "bufferViews" : [
    { "buffer" : 0, "byteOffset" : 0, "byteLength" : 138504, "target" : 34963  },
    { "buffer" : 1, "byteOffset" : 0, "byteLength" : 415512, "target" : 34962  },
    { "buffer" : 2, "byteOffset" : 0, "byteLength" : 415512, "target" : 34962  },
    { "buffer" : 3, "byteOffset" : 0, "byteLength" : 415512, "target" : 34962  },
    { "buffer" : 4, "byteOffset" : 0, "byteLength" : 288000, "target" : 34963  },
    { "buffer" : 5, "byteOffset" : 0, "byteLength" : 144960, "target" : 34962  },
    { "buffer" : 6, "byteOffset" : 0, "byteLength" : 144960, "target" : 34962  },
    { "buffer" : 7, "byteOffset" : 0, "byteLength" : 144960, "target" : 34962  },
    { "buffer" : 8, "byteOffset" : 0, "byteLength" : 1152, "target" : 34963  },
    { "buffer" : 9, "byteOffset" : 0, "byteLength" : 600, "target" : 34962  },
    { "buffer" : 10, "byteOffset" : 0, "byteLength" : 600, "target" : 34962  },
    { "buffer" : 11, "byteOffset" : 0, "byteLength" : 600, "target" : 34962  },
    { "buffer" : 12, "byteOffset" : 0, "byteLength" : 0, "target" : 34963  },
    { "buffer" : 13, "byteOffset" : 0, "byteLength" : 0, "target" : 34962  },
    { "buffer" : 14, "byteOffset" : 0, "byteLength" : 0, "target" : 34962  },
    { "buffer" : 15, "byteOffset" : 0, "byteLength" : 0, "target" : 34962  },
    { "buffer" : 16, "byteOffset" : 0, "byteLength" : 21600, "target" : 34963  },
    { "buffer" : 17, "byteOffset" : 0, "byteLength" : 10872, "target" : 34962  },
    { "buffer" : 18, "byteOffset" : 0, "byteLength" : 10872, "target" : 34962  },
    { "buffer" : 19, "byteOffset" : 0, "byteLength" : 10872, "target" : 34962  }
  ],
  "accessors" : [
    { "bufferView" : 0, "byteOffset" : 0, "componentType" : 5125, "type" : "SCALAR", "count" : 34626},
    { "bufferView" : 1, "byteOffset" : 0, "componentType" : 5126, "type" : "VEC3", "count" : 34626, "max" : [3.9000001,1.65490615,1.74423325], "min" : [0,-1.82065177,-0.903439343] },
    { "bufferView" : 2, "byteOffset" : 0, "componentType" : 5126, "type" : "VEC3", "count" : 34626},
    { "bufferView" : 3, "byteOffset" : 0, "componentType" : 5126, "type" : "VEC3", "count" : 34626},
    { "bufferView" : 4, "byteOffset" : 0, "componentType" : 5125, "type" : "SCALAR", "count" : 72000},
    { "bufferView" : 5, "byteOffset" : 0, "componentType" : 5126, "type" : "VEC3", "count" : 12080, "max" : [3.93000007,0.157492623,-0.184205234], "min" : [-0.0299999993,-0.113453716,-0.74032408] },
    { "bufferView" : 6, "byteOffset" : 0, "componentType" : 5126, "type" : "VEC3", "count" : 12080},
    { "bufferView" : 7, "byteOffset" : 0, "componentType" : 5126, "type" : "VEC3", "count" : 12080},
    { "bufferView" : 8, "byteOffset" : 0, "componentType" : 5125, "type" : "SCALAR", "count" : 288},
    { "bufferView" : 9, "byteOffset" : 0, "componentType" : 5126, "type" : "VEC3", "count" : 50, "max" : [3.90458608,0.181596324,0.293821484], "min" : [-0.0045860135,-0.113477387,-0.108414188] },
    { "bufferView" : 10, "byteOffset" : 0, "componentType" : 5126, "type" : "VEC3", "count" : 50},
    { "bufferView" : 11, "byteOffset" : 0, "componentType" : 5126, "type" : "VEC3", "count" : 50},
    { "bufferView" : 12, "byteOffset" : 0, "componentType" : 5125, "type" : "SCALAR", "count" : 0},
    { "bufferView" : 13, "byteOffset" : 0, "componentType" : 5126, "type" : "VEC3", "count" : 0, "max" : [-3.40282347e+38,-3.40282347e+38,-3.40282347e+38], "min" : [3.40282347e+38,3.40282347e+38,3.40282347e+38] },
    { "bufferView" : 14, "byteOffset" : 0, "componentType" : 5126, "type" : "VEC3", "count" : 0},
    { "bufferView" : 15, "byteOffset" : 0, "componentType" : 5126, "type" : "VEC3", "count" : 0},
    { "bufferView" : 16, "byteOffset" : 0, "componentType" : 5125, "type" : "SCALAR", "count" : 5400},
    { "bufferView" : 17, "byteOffset" : 0, "componentType" : 5126, "type" : "VEC3", "count" : 906, "max" : [3.04999995,1.61684477,1.76029575], "min" : [0.349999994,-1.24859262,-0.586996555] },
    { "bufferView" : 18, "byteOffset" : 0, "componentType" : 5126, "type" : "VEC3", "count" : 906},
    { "bufferView" : 19, "byteOffset" : 0, "componentType" : 5126, "type" : "VEC3", "count" : 906}
  ],
  "materials" : [ { "doubleSided" : true } ],
  "asset" : {
    "generator" : "https://github.com/ABRG-Models/morphologica: morph::Visual::savegltf()",
    "version" : "2.0"
  }
}
