{
  "scenes" : [ { "nodes" : [ 0, 1, 2, 3 ] } ],
  "nodes" : [
    { "mesh" : 0, "translation" : [0,0,0] },
    { "mesh" : 1, "translation" : [0,0,0] },
    { "mesh" : 2, "translation" : [0,0,0] },
    { "mesh" : 3, "translation" : [0,0,0] }
  ],
  "meshes" : [
    { "primitives" : [ { "attributes" : { "POSITION" : 1, "COLOR_0" : 2, "NORMAL" : 3 }, "indices" : 0, "material": 0 } ] },
    { "primitives" : [ { "attributes" : { "POSITION" : 5, "COLOR_0" : 6, "NORMAL" : 7 }, "indices" : 4, "material": 0 } ] },
    { "primitives" : [ { "attributes" : { "POSITION" : 9, "COLOR_0" : 10, "NORMAL" : 11 }, "indices" : 8, "material": 0 } ] },
    { "primitives" : [ { "attributes" : { "POSITION" : 13, "COLOR_0" : 14, "NORMAL" : 15 }, "indices" : 12, "material": 0 } ] }
  ],
  "buffers" : [
    {"uri" : "data:application/octet-stream;base64,", "byteLength" : 79860},
    {"uri" : "data:application/octet-stream;base64,", "byteLength" : 239580},
    {"uri" : "data:application/octet-stream;base64,", "byteLength" : 239580},
    {"uri" : "data:application/octet-stream;base64,", "byteLength" : 239580},
    {"uri" : "data:application/octet-stream;base64,", "byteLength" : 252000},
    {"uri" : "data:application/octet-stream;base64,", "byteLength" : 126840},
    {"uri" : "data:application/octet-stream;base64,", "byteLength" : 126840},
    {"uri" : "data:application/octet-stream;base64,", "byteLength" : 126840},
    {"uri" : "data:application/octet-stream;base64,", "byteLength" : 1152},
    {"uri" : "data:application/octet-stream;base64,", "byteLength" : 600},
    {"uri" : "data:application/octet-stream;base64,", "byteLength" : 600},
    {"uri" : "data:application/octet-stream;base64,", "byteLength" : 600},
    {"uri" : "data:application/octet-stream;base64,", "byteLength" : 252000},
    {"uri" : "data:application/octet-stream;base64,", "byteLength" : 126840},
    {"uri" : "data:application/octet-stream;base64,", "byteLength" : 126840},
    {"uri" : "data:application/octet-stream;base64,", "byteLength" : 126840}
  ],
  "bufferViews" : [
    { "buffer" : 0, "byteOffset" : 0, "byteLength" : 79860, "target" : 34963  },
    { "buffer" : 1, "byteOffset" : 0, "byteLength" : 239580, "target" : 34962  },
    { "buffer" : 2, "byteOffset" : 0, "byteLength" : 239580, "target" : 34962  },
    { "buffer" : 3, "byteOffset" : 0, "byteLength" : 239580, "target" : 34962  },
    { "buffer" : 4, "byteOffset" : 0, "byteLength" : 252000, "target" : 34963  },
    { "buffer" : 5, "byteOffset" : 0, "byteLength" : 126840, "target" : 34962  },
    { "buffer" : 6, "byteOffset" : 0, "byteLength" : 126840, "target" : 34962  },
    { "buffer" : 7, "byteOffset" : 0, "byteLength" : 126840, "target" : 34962  },
    { "buffer" : 8, "byteOffset" : 0, "byteLength" : 1152, "target" : 34963  },
    { "buffer" : 9, "byteOffset" : 0, "byteLength" : 600, "target" : 34962  },
    { "buffer" : 10, "byteOffset" : 0, "byteLength" : 600, "target" : 34962  },
    { "buffer" : 11, "byteOffset" : 0, "byteLength" : 600, "target" : 34962  },
    { "buffer" : 12, "byteOffset" : 0, "byteLength" : 252000, "target" : 34963  },
    { "buffer" : 13, "byteOffset" : 0, "byteLength" : 126840, "target" : 34962  },
    { "buffer" : 14, "byteOffset" : 0, "byteLength" : 126840, "target" : 34962  },
    { "buffer" : 15, "byteOffset" : 0, "byteLength" : 126840, "target" : 34962  }
  ],
  "accessors" : [
    { "bufferView" : 0, "byteOffset" : 0, "componentType" : 5125, "type" : "SCALAR", "count" : 19965},
    { "bufferView" : 1, "byteOffset" : 0, "componentType" : 5126, "type" : "VEC3", "count" : 19965, "max" : [4.19999981,2.18705797,1.28203785], "min" : [0.800000012,-1.25977886,-2.0202837] },
    { "bufferView" : 2, "byteOffset" : 0, "componentType" : 5126, "type" : "VEC3", "count" : 19965},
    { "bufferView" : 3, "byteOffset" : 0, "componentType" : 5126, "type" : "VEC3", "count" : 19965},
    { "bufferView" : 4, "byteOffset" : 0, "componentType" : 5125, "type" : "SCALAR", "count" : 63000},
    { "bufferView" : 5, "byteOffset" : 0, "componentType" : 5126, "type" : "VEC3", "count" : 10570, "max" : [4.23000002,0.427012116,-0.887469947], "min" : [0.770000041,-0.384054154,-1.98234785] },
    { "bufferView" : 6, "byteOffset" : 0, "componentType" : 5126, "type" : "VEC3", "count" : 10570},
    { "bufferView" : 7, "byteOffset" : 0, "componentType" : 5126, "type" : "VEC3", "count" : 10570},
    { "bufferView" : 8, "byteOffset" : 0, "componentType" : 5125, "type" : "SCALAR", "count" : 288},
    { "bufferView" : 9, "byteOffset" : 0, "componentType" : 5126, "type" : "VEC3", "count" : 50, "max" : [4.22379827,0.452872902,0.355061531], "min" : [0.776201606,-0.349116832,-1.45128655] },
    { "bufferView" : 10, "byteOffset" : 0, "componentType" : 5126, "type" : "VEC3", "count" : 50},
    { "bufferView" : 11, "byteOffset" : 0, "componentType" : 5126, "type" : "VEC3", "count" : 50},
    { "bufferView" : 12, "byteOffset" : 0, "componentType" : 5125, "type" : "SCALAR", "count" : 63000},
    { "bufferView" : 13, "byteOffset" : 0, "componentType" : 5126, "type" : "VEC3", "count" : 10570, "max" : [4.26999998,0.233466029,-2.53819847], "min" : [0.730000019,0.0934660211,-2.67819834] },
    { "bufferView" : 14, "byteOffset" : 0, "componentType" : 5126, "type" : "VEC3", "count" : 10570},
    { "bufferView" : 15, "byteOffset" : 0, "componentType" : 5126, "type" : "VEC3", "count" : 10570}
  ],
  "materials" : [ { "doubleSided" : true } ],
  "asset" : {
    "generator" : "https://github.com/ABRG-Models/morphologica: morph::Visual::savegltf()",
    "version" : "2.0"
  }
}
